<svg id="svg" version="1.1" xmlns="http://www.w3.org/2000/svg" xmlns:xlink="http://www.w3.org/1999/xlink" width="400" height="400" viewBox="0, 0, 400,400"><g id="svgg"><path id="path0" d="M188.267 17.086 C 172.249 18.232,156.923 21.262,142.133 26.206 C 139.713 27.015,137.433 27.802,137.067 27.955 C 136.700 28.108,135.440 28.591,134.267 29.030 C 126.827 31.811,114.123 37.918,108.607 41.363 C 107.693 41.933,106.876 42.400,106.790 42.400 C 106.539 42.400,97.662 48.145,95.467 49.727 C 94.367 50.520,92.683 51.713,91.725 52.377 C 90.768 53.041,89.748 53.801,89.459 54.067 C 89.170 54.332,88.456 54.906,87.872 55.341 C 81.290 60.252,70.072 70.704,63.694 77.867 C 61.072 80.812,57.175 85.506,55.608 87.605 C 55.173 88.189,54.599 88.903,54.334 89.192 C 54.068 89.481,53.308 90.501,52.643 91.459 C 51.979 92.416,50.787 94.100,49.994 95.200 C 48.411 97.395,42.667 106.272,42.667 106.523 C 42.667 106.609,42.200 107.427,41.630 108.340 C 38.165 113.887,32.094 126.519,29.297 134.000 C 28.858 135.173,28.374 136.433,28.222 136.800 C 18.910 159.163,14.835 195.038,18.408 223.200 C 20.157 236.984,24.426 254.617,28.222 263.733 C 28.374 264.100,28.864 265.377,29.309 266.572 C 30.305 269.246,32.450 274.220,34.062 277.600 C 34.727 278.993,35.670 280.973,36.158 282.000 C 37.731 285.312,39.719 288.910,43.867 295.948 C 44.894 297.690,49.764 304.882,51.862 307.755 C 53.258 309.666,54.400 311.271,54.400 311.322 C 54.400 311.373,54.747 311.817,55.170 312.308 C 55.594 312.798,57.175 314.700,58.684 316.533 C 93.591 358.933,144.841 383.057,200.000 383.053 C 208.610 383.052,217.685 382.648,218.105 382.246 C 218.220 382.136,216.799 353.783,216.672 353.652 C 216.628 353.607,215.049 353.726,213.163 353.916 C 195.713 355.675,172.173 353.110,154.336 347.506 C 89.190 327.039,45.733 267.909,45.733 199.733 C 45.733 157.902,61.341 120.439,91.178 90.655 C 119.738 62.147,154.744 47.135,196.600 45.447 L 200.800 45.277 200.798 43.772 C 200.797 42.944,200.497 36.567,200.132 29.600 C 199.766 22.633,199.467 16.914,199.467 16.890 C 199.466 16.752,190.837 16.903,188.267 17.086 M82.480 106.962 C 82.010 107.097,81.577 107.297,81.517 107.404 C 81.458 107.512,87.648 113.120,95.273 119.867 C 102.899 126.613,112.982 135.543,117.679 139.710 L 126.220 147.288 125.521 147.844 C 125.136 148.150,123.586 149.048,122.077 149.841 C 90.817 166.257,75.210 198.642,81.887 233.240 C 87.763 263.691,112.977 287.705,144.000 292.400 C 149.623 293.251,211.643 293.780,212.438 292.984 C 213.184 292.238,178.280 260.707,174.730 258.921 C 173.192 258.147,171.178 257.952,161.200 257.606 C 142.862 256.971,136.053 254.693,127.715 246.402 C 104.292 223.113,116.152 183.802,148.400 177.842 C 154.637 176.690,163.370 176.891,184.639 178.677 C 195.235 179.567,206.586 180.190,207.287 179.921 C 208.000 179.648,207.669 179.209,202.892 174.089 C 183.237 153.027,159.294 129.349,140.467 112.357 C 136.082 108.399,134.542 107.410,132.030 106.937 C 130.187 106.590,83.685 106.613,82.480 106.962 " stroke="none" fill="#2c80f1" fill-rule="evenodd"></path><path id="path1" d="M199.550 18.717 C 199.638 19.789,199.976 26.187,200.301 32.933 C 200.626 39.680,200.917 45.236,200.948 45.280 C 200.979 45.324,203.469 45.473,206.480 45.610 C 301.258 49.941,369.954 137.445,351.448 230.267 C 340.028 287.544,296.360 334.034,239.733 349.204 C 233.074 350.988,220.871 353.320,218.099 353.337 C 216.668 353.347,216.695 352.700,217.477 368.031 C 217.876 375.861,218.217 382.285,218.235 382.307 C 218.362 382.468,229.361 380.893,233.467 380.126 C 330.083 362.083,395.359 271.097,381.445 173.867 C 371.021 101.025,317.190 40.875,246.000 22.522 C 241.653 21.402,235.953 20.094,234.267 19.831 C 233.827 19.763,232.147 19.477,230.533 19.196 C 222.570 17.808,212.839 16.915,204.695 16.826 L 199.390 16.767 199.550 18.717 M188.506 106.994 C 185.980 107.427,186.059 107.539,193.112 113.499 C 200.696 119.908,208.068 126.368,214.667 132.388 C 224.930 141.751,225.455 141.980,236.400 141.896 C 261.658 141.702,276.021 150.507,282.390 170.090 C 289.714 192.611,275.997 216.851,253.333 221.435 C 248.623 222.387,246.431 222.491,213.467 223.326 C 198.985 223.692,187.227 224.183,186.955 224.432 C 186.788 224.585,187.859 225.523,216.000 249.892 C 230.300 262.276,246.479 276.306,251.954 281.071 C 262.711 290.432,263.891 291.336,266.608 292.298 L 268.400 292.933 293.733 292.993 L 319.067 293.053 318.114 292.193 C 317.590 291.720,308.294 283.473,297.457 273.867 C 273.937 253.016,274.400 253.442,274.400 252.677 C 274.400 251.864,274.832 251.537,278.649 249.467 C 305.639 234.823,319.759 211.278,319.731 180.961 C 319.698 145.557,293.252 114.148,258.267 107.959 C 254.010 107.206,192.258 106.352,188.506 106.994 " stroke="none" fill="#2cdca4" fill-rule="evenodd"></path><path id="path2" d="M279.222 34.503 C 279.493 34.754,285.867 37.857,285.867 37.737 C 285.867 37.590,279.583 34.400,279.293 34.400 C 279.193 34.400,279.161 34.446,279.222 34.503 M286.667 38.258 C 286.667 38.331,287.267 38.695,288.000 39.067 C 288.733 39.438,289.333 39.682,289.333 39.609 C 289.333 39.536,288.733 39.172,288.000 38.800 C 287.267 38.428,286.667 38.184,286.667 38.258 M289.601 39.809 C 289.675 39.891,291.775 41.182,294.268 42.678 C 396.732 104.174,413.956 245.497,329.272 329.884 C 265.175 393.755,163.933 401.272,91.267 347.554 C 89.617 346.334,88.267 345.397,88.267 345.470 C 88.267 346.006,100.632 354.482,106.476 357.952 C 178.219 400.551,268.976 389.842,328.634 331.737 C 409.391 253.082,400.704 120.642,310.360 53.136 C 304.095 48.455,288.172 38.233,289.601 39.809 M190.000 45.890 C 101.573 51.758,35.901 131.131,46.826 218.933 C 57.237 302.606,133.517 362.772,217.198 353.314 C 303.581 343.552,365.165 263.924,352.787 178.000 C 341.335 98.506,269.961 40.583,190.000 45.890 M134.415 107.495 C 136.962 108.690,146.045 116.966,165.673 135.977 C 178.138 148.050,204.386 175.037,207.130 178.601 C 208.215 180.010,207.746 180.261,204.314 180.107 C 198.327 179.837,192.120 179.427,184.533 178.800 C 157.661 176.577,150.973 176.682,142.638 179.457 C 113.598 189.124,106.097 227.716,129.333 247.903 C 137.388 254.900,143.620 256.770,161.200 257.463 C 172.773 257.920,173.828 258.054,175.523 259.279 C 176.172 259.749,184.566 267.007,194.175 275.409 C 211.663 290.701,213.492 292.465,212.501 293.093 C 211.954 293.439,153.041 293.396,148.881 293.046 C 109.559 289.738,80.441 257.706,80.419 217.733 C 80.403 188.198,95.530 163.571,122.267 149.604 C 125.957 147.676,126.239 147.375,125.200 146.477 C 120.127 142.095,81.333 107.586,81.333 107.456 C 81.333 106.752,83.356 106.697,107.733 106.748 L 132.933 106.800 134.415 107.495 M248.142 107.063 C 267.624 107.570,283.393 114.587,298.157 129.318 C 316.392 147.514,323.370 171.624,318.106 198.243 C 313.807 219.979,300.538 237.631,280.133 248.758 C 273.700 252.266,273.673 252.297,275.400 254.072 C 275.950 254.638,285.820 263.443,297.333 273.639 C 308.847 283.834,318.431 292.377,318.633 292.622 C 319.169 293.273,270.111 293.309,267.614 292.659 C 264.689 291.897,262.789 290.617,256.667 285.286 C 253.440 282.476,236.520 267.798,219.067 252.669 C 186.464 224.407,186.305 224.267,187.013 224.267 C 187.239 224.267,189.204 224.149,191.379 224.005 C 193.554 223.860,202.293 223.560,210.800 223.337 C 247.841 222.365,248.358 222.341,253.269 221.327 C 274.342 216.975,288.253 195.261,283.416 174.267 C 278.441 152.673,263.493 141.981,238.406 142.073 C 225.535 142.119,225.030 141.928,215.733 133.459 C 208.792 127.136,199.090 118.639,192.396 113.018 C 186.467 108.040,186.010 107.380,188.133 106.860 C 188.767 106.705,241.201 106.882,248.142 107.063 M67.467 326.800 C 68.412 327.753,69.245 328.533,69.318 328.533 C 69.391 328.533,68.678 327.753,67.733 326.800 C 66.788 325.847,65.955 325.067,65.882 325.067 C 65.809 325.067,66.522 325.847,67.467 326.800 M73.467 332.800 C 74.633 333.973,75.647 334.933,75.721 334.933 C 75.794 334.933,74.900 333.973,73.733 332.800 C 72.567 331.627,71.553 330.667,71.479 330.667 C 71.406 330.667,72.300 331.627,73.467 332.800 M77.467 336.533 C 78.040 337.120,78.568 337.600,78.642 337.600 C 78.715 337.600,78.306 337.120,77.733 336.533 C 77.160 335.947,76.632 335.467,76.558 335.467 C 76.485 335.467,76.894 335.947,77.467 336.533 M79.733 338.533 C 80.231 339.047,80.698 339.467,80.771 339.467 C 80.845 339.467,80.498 339.047,80.000 338.533 C 79.502 338.020,79.035 337.600,78.962 337.600 C 78.889 337.600,79.236 338.020,79.733 338.533 M84.467 342.438 C 84.858 342.927,88.000 345.425,88.000 345.248 C 88.000 345.181,87.130 344.428,86.067 343.574 C 85.003 342.721,84.283 342.210,84.467 342.438 " stroke="none" fill="#fbfbfc" fill-rule="evenodd"></path><path id="path3" d="M200.738 45.527 C 201.217 45.586,201.937 45.585,202.338 45.524 C 202.739 45.463,202.347 45.414,201.467 45.416 C 200.587 45.417,200.259 45.467,200.738 45.527 M191.800 45.784 C 192.057 45.851,192.477 45.851,192.733 45.784 C 192.990 45.717,192.780 45.662,192.267 45.662 C 191.753 45.662,191.543 45.717,191.800 45.784 M207.533 45.791 C 207.937 45.852,208.597 45.852,209.000 45.791 C 209.403 45.730,209.073 45.680,208.267 45.680 C 207.460 45.680,207.130 45.730,207.533 45.791 M211.800 46.050 C 212.057 46.118,212.477 46.118,212.733 46.050 C 212.990 45.983,212.780 45.929,212.267 45.929 C 211.753 45.929,211.543 45.983,211.800 46.050 M329.467 70.400 C 331.810 72.747,333.787 74.667,333.860 74.667 C 333.934 74.667,332.077 72.747,329.733 70.400 C 327.390 68.053,325.413 66.133,325.340 66.133 C 325.266 66.133,327.123 68.053,329.467 70.400 M304.800 86.800 C 305.298 87.313,305.765 87.733,305.838 87.733 C 305.911 87.733,305.564 87.313,305.067 86.800 C 304.569 86.287,304.102 85.867,304.029 85.867 C 303.955 85.867,304.302 86.287,304.800 86.800 M313.067 95.067 C 313.564 95.580,314.031 96.000,314.105 96.000 C 314.178 96.000,313.831 95.580,313.333 95.067 C 312.836 94.553,312.369 94.133,312.295 94.133 C 312.222 94.133,312.569 94.553,313.067 95.067 M195.800 106.866 C 197.817 106.911,201.117 106.911,203.133 106.866 C 205.150 106.821,203.500 106.784,199.467 106.784 C 195.433 106.784,193.783 106.821,195.800 106.866 M238.483 107.133 C 240.655 107.178,244.135 107.178,246.216 107.133 C 248.297 107.088,246.520 107.051,242.267 107.051 C 238.013 107.051,236.311 107.088,238.483 107.133 M296.256 127.533 C 297.361 128.711,297.600 128.922,297.600 128.722 C 297.600 128.679,297.030 128.109,296.333 127.456 L 295.067 126.267 296.256 127.533 M299.722 131.000 C 300.376 131.697,300.946 132.267,300.989 132.267 C 301.189 132.267,300.977 132.027,299.800 130.922 L 298.533 129.733 299.722 131.000 M160.800 131.283 C 160.800 131.329,161.190 131.719,161.667 132.150 L 162.533 132.933 161.750 132.067 C 161.020 131.259,160.800 131.077,160.800 131.283 M175.733 146.000 C 178.150 148.420,180.187 150.400,180.261 150.400 C 180.334 150.400,178.417 148.420,176.000 146.000 C 173.583 143.580,171.546 141.600,171.473 141.600 C 171.399 141.600,173.317 143.580,175.733 146.000 M235.405 142.060 C 235.884 142.119,236.604 142.118,237.005 142.057 C 237.405 141.996,237.013 141.948,236.133 141.949 C 235.253 141.951,234.925 142.001,235.405 142.060 M243.403 142.055 C 243.735 142.119,244.215 142.117,244.470 142.050 C 244.725 141.983,244.453 141.931,243.867 141.934 C 243.280 141.937,243.071 141.991,243.403 142.055 M272.267 153.467 C 273.212 154.420,274.045 155.200,274.118 155.200 C 274.191 155.200,273.478 154.420,272.533 153.467 C 271.588 152.513,270.755 151.733,270.682 151.733 C 270.609 151.733,271.322 152.513,272.267 153.467 M189.867 160.400 C 190.364 160.913,190.831 161.333,190.905 161.333 C 190.978 161.333,190.631 160.913,190.133 160.400 C 189.636 159.887,189.169 159.467,189.095 159.467 C 189.022 159.467,189.369 159.887,189.867 160.400 M102.126 164.200 L 100.400 166.000 102.200 164.274 C 103.190 163.325,104.000 162.515,104.000 162.474 C 104.000 162.278,103.728 162.528,102.126 164.200 M354.201 193.467 C 354.204 194.053,354.258 194.262,354.322 193.930 C 354.386 193.599,354.383 193.119,354.317 192.864 C 354.250 192.609,354.198 192.880,354.201 193.467 M383.311 200.000 C 383.311 202.713,383.350 203.823,383.399 202.467 C 383.447 201.110,383.447 198.890,383.399 197.533 C 383.350 196.177,383.311 197.287,383.311 200.000 M354.201 206.267 C 354.204 206.853,354.258 207.062,354.322 206.730 C 354.386 206.399,354.383 205.919,354.317 205.664 C 354.250 205.409,354.198 205.680,354.201 206.267 M271.587 211.800 L 270.533 212.933 271.667 211.879 C 272.721 210.899,272.923 210.667,272.721 210.667 C 272.677 210.667,272.167 211.177,271.587 211.800 M240.870 222.591 C 241.276 222.653,241.876 222.651,242.204 222.588 C 242.532 222.524,242.200 222.474,241.467 222.476 C 240.733 222.478,240.465 222.530,240.870 222.591 M231.537 222.858 C 231.942 222.919,232.542 222.918,232.870 222.854 C 233.198 222.791,232.867 222.741,232.133 222.743 C 231.400 222.745,231.132 222.797,231.537 222.858 M221.538 223.127 C 222.017 223.186,222.737 223.185,223.138 223.124 C 223.539 223.063,223.147 223.014,222.267 223.016 C 221.387 223.017,221.059 223.067,221.538 223.127 M211.533 223.391 C 211.937 223.452,212.597 223.452,213.000 223.391 C 213.403 223.330,213.073 223.280,212.267 223.280 C 211.460 223.280,211.130 223.330,211.533 223.391 M201.670 223.658 C 202.076 223.719,202.676 223.718,203.004 223.654 C 203.332 223.591,203.000 223.541,202.267 223.543 C 201.533 223.545,201.265 223.597,201.670 223.658 M298.527 235.000 L 296.400 237.200 298.600 235.073 C 300.643 233.097,300.922 232.800,300.727 232.800 C 300.687 232.800,299.697 233.790,298.527 235.000 M308.929 309.133 L 305.467 312.667 309.000 309.204 C 310.943 307.299,312.533 305.709,312.533 305.671 C 312.533 305.479,312.146 305.851,308.929 309.133 M88.800 307.007 C 88.800 307.047,89.730 307.977,90.867 309.073 L 92.933 311.067 90.940 309.000 C 89.089 307.081,88.800 306.812,88.800 307.007 M334.517 324.333 L 333.733 325.200 334.600 324.417 C 335.408 323.687,335.589 323.467,335.383 323.467 C 335.337 323.467,334.947 323.857,334.517 324.333 M70.267 329.600 C 70.840 330.187,71.368 330.667,71.442 330.667 C 71.515 330.667,71.106 330.187,70.533 329.600 C 69.960 329.013,69.432 328.533,69.358 328.533 C 69.285 328.533,69.694 329.013,70.267 329.600 M329.454 329.667 L 328.400 330.800 329.533 329.746 C 330.587 328.766,330.789 328.533,330.587 328.533 C 330.544 328.533,330.034 329.043,329.454 329.667 M324.117 334.733 L 323.333 335.600 324.200 334.817 C 325.008 334.087,325.189 333.867,324.983 333.867 C 324.937 333.867,324.547 334.257,324.117 334.733 M194.867 354.322 C 195.197 354.385,195.737 354.385,196.067 354.322 C 196.397 354.258,196.127 354.206,195.467 354.206 C 194.807 354.206,194.537 354.258,194.867 354.322 M204.070 354.325 C 204.476 354.386,205.076 354.384,205.404 354.321 C 205.732 354.258,205.400 354.208,204.667 354.210 C 203.933 354.212,203.665 354.263,204.070 354.325 " stroke="none" fill="#98dce0" fill-rule="evenodd"></path><path id="path4" d="M197.533 45.526 C 198.010 45.585,198.790 45.585,199.267 45.526 C 199.743 45.467,199.353 45.419,198.400 45.419 C 197.447 45.419,197.057 45.467,197.533 45.526 M156.267 127.017 C 156.267 127.063,156.657 127.453,157.133 127.883 L 158.000 128.667 157.217 127.800 C 156.487 126.992,156.267 126.811,156.267 127.017 M163.456 133.933 C 164.109 134.630,164.679 135.200,164.722 135.200 C 164.922 135.200,164.711 134.961,163.533 133.856 L 162.267 132.667 163.456 133.933 M187.867 158.400 C 188.440 158.987,188.968 159.467,189.042 159.467 C 189.115 159.467,188.706 158.987,188.133 158.400 C 187.560 157.813,187.032 157.333,186.958 157.333 C 186.885 157.333,187.294 157.813,187.867 158.400 M193.867 164.617 C 193.867 164.663,194.257 165.053,194.733 165.483 L 195.600 166.267 194.817 165.400 C 194.087 164.592,193.867 164.411,193.867 164.617 M154.200 177.258 C 154.603 177.319,155.263 177.319,155.667 177.258 C 156.070 177.197,155.740 177.147,154.933 177.147 C 154.127 177.147,153.797 177.197,154.200 177.258 M160.994 177.259 C 161.467 177.318,162.307 177.319,162.861 177.261 C 163.414 177.204,163.027 177.155,162.000 177.154 C 160.973 177.153,160.521 177.200,160.994 177.259 M166.867 177.522 C 167.197 177.585,167.737 177.585,168.067 177.522 C 168.397 177.458,168.127 177.406,167.467 177.406 C 166.807 177.406,166.537 177.458,166.867 177.522 M171.403 177.789 C 171.735 177.852,172.215 177.850,172.470 177.783 C 172.725 177.716,172.453 177.664,171.867 177.667 C 171.280 177.670,171.071 177.725,171.403 177.789 M175.267 178.050 C 175.523 178.118,175.943 178.118,176.200 178.050 C 176.457 177.983,176.247 177.929,175.733 177.929 C 175.220 177.929,175.010 177.983,175.267 178.050 M184.867 178.850 C 185.123 178.918,185.543 178.918,185.800 178.850 C 186.057 178.783,185.847 178.729,185.333 178.729 C 184.820 178.729,184.610 178.783,184.867 178.850 M188.067 179.117 C 188.323 179.184,188.743 179.184,189.000 179.117 C 189.257 179.050,189.047 178.995,188.533 178.995 C 188.020 178.995,187.810 179.050,188.067 179.117 M191.533 179.384 C 191.790 179.451,192.210 179.451,192.467 179.384 C 192.723 179.317,192.513 179.262,192.000 179.262 C 191.487 179.262,191.277 179.317,191.533 179.384 M195.136 179.655 C 195.468 179.719,195.948 179.717,196.203 179.650 C 196.458 179.583,196.187 179.531,195.600 179.534 C 195.013 179.537,194.805 179.591,195.136 179.655 M199.533 179.924 C 199.937 179.985,200.597 179.985,201.000 179.924 C 201.403 179.863,201.073 179.813,200.267 179.813 C 199.460 179.813,199.130 179.863,199.533 179.924 M205.933 180.184 C 206.190 180.251,206.610 180.251,206.867 180.184 C 207.123 180.117,206.913 180.062,206.400 180.062 C 205.887 180.062,205.677 180.117,205.933 180.184 M45.934 188.400 C 45.937 188.987,45.991 189.195,46.055 188.864 C 46.119 188.532,46.117 188.052,46.050 187.797 C 45.983 187.542,45.931 187.813,45.934 188.400 M45.683 192.933 C 45.684 193.813,45.734 194.141,45.793 193.662 C 45.853 193.183,45.851 192.463,45.791 192.062 C 45.730 191.661,45.681 192.053,45.683 192.933 M45.680 206.933 C 45.680 207.740,45.730 208.070,45.791 207.667 C 45.852 207.263,45.852 206.603,45.791 206.200 C 45.730 205.797,45.680 206.127,45.680 206.933 M45.929 211.467 C 45.929 211.980,45.983 212.190,46.050 211.933 C 46.118 211.677,46.118 211.257,46.050 211.000 C 45.983 210.743,45.929 210.953,45.929 211.467 M80.343 213.467 C 80.345 214.200,80.397 214.468,80.458 214.063 C 80.519 213.658,80.518 213.058,80.454 212.730 C 80.391 212.402,80.341 212.733,80.343 213.467 M80.343 221.733 C 80.345 222.467,80.397 222.735,80.458 222.330 C 80.519 221.924,80.518 221.324,80.454 220.996 C 80.391 220.668,80.341 221.000,80.343 221.733 M152.203 257.255 C 152.535 257.319,153.015 257.317,153.270 257.250 C 153.525 257.183,153.253 257.131,152.667 257.134 C 152.080 257.137,151.871 257.191,152.203 257.255 M157.805 257.527 C 158.284 257.586,159.004 257.585,159.405 257.524 C 159.805 257.463,159.413 257.414,158.533 257.416 C 157.653 257.417,157.325 257.467,157.805 257.527 M164.194 257.792 C 164.667 257.851,165.507 257.852,166.061 257.795 C 166.614 257.737,166.227 257.689,165.200 257.688 C 164.173 257.686,163.721 257.734,164.194 257.792 M152.867 293.264 C 153.857 293.316,155.477 293.316,156.467 293.264 C 157.457 293.213,156.647 293.171,154.667 293.171 C 152.687 293.171,151.877 293.213,152.867 293.264 M207.938 293.260 C 208.417 293.319,209.137 293.318,209.538 293.257 C 209.939 293.196,209.547 293.148,208.667 293.149 C 207.787 293.151,207.459 293.201,207.938 293.260 M92.800 311.017 C 92.800 311.063,93.190 311.453,93.667 311.883 L 94.533 312.667 93.750 311.800 C 93.020 310.992,92.800 310.811,92.800 311.017 M193.133 354.317 C 193.390 354.384,193.810 354.384,194.067 354.317 C 194.323 354.250,194.113 354.195,193.600 354.195 C 193.087 354.195,192.877 354.250,193.133 354.317 M191.800 383.117 C 192.057 383.184,192.477 383.184,192.733 383.117 C 192.990 383.050,192.780 382.995,192.267 382.995 C 191.753 382.995,191.543 383.050,191.800 383.117 M207.267 383.117 C 207.523 383.184,207.943 383.184,208.200 383.117 C 208.457 383.050,208.247 382.995,207.733 382.995 C 207.220 382.995,207.010 383.050,207.267 383.117 " stroke="none" fill="#7ca4fc" fill-rule="evenodd"></path></g></svg>